<svg xmlns="http://www.w3.org/2000/svg" xmlns:xlink="http://www.w3.org/1999/xlink" width="253" height="253" viewBox="0 0 253 253">
  <defs>
    <linearGradient id="linear-gradient" x1="0.5" y1="-2.526" x2="0.5" y2="3.058" gradientUnits="objectBoundingBox">
      <stop offset="0" stop-color="#f069db"/>
      <stop offset="0.206" stop-color="#c45ee5"/>
      <stop offset="0.465" stop-color="#9452f0"/>
      <stop offset="0.692" stop-color="#714af8"/>
      <stop offset="0.879" stop-color="#5b44fd"/>
      <stop offset="1" stop-color="#5443ff"/>
    </linearGradient>
    <linearGradient id="linear-gradient-2" x1="0.5" y1="-0.681" x2="0.5" y2="3.058" xlink:href="#linear-gradient"/>
    <linearGradient id="linear-gradient-3" x1="0.5" y1="-0.681" x2="0.5" y2="3.058" xlink:href="#linear-gradient"/>
    <linearGradient id="linear-gradient-4" x1="0.5" y1="-3.465" x2="0.5" y2="2.006" xlink:href="#linear-gradient"/>
    <linearGradient id="linear-gradient-6" x1="0.5" y1="-3.464" x2="0.5" y2="2.006" xlink:href="#linear-gradient"/>
    <linearGradient id="linear-gradient-7" x1="0.5" y1="-0.308" x2="0.5" y2="6.765" xlink:href="#linear-gradient"/>
    <linearGradient id="linear-gradient-8" x1="0.5" y1="-4.038" x2="0.5" y2="16.833" xlink:href="#linear-gradient"/>
    <linearGradient id="linear-gradient-9" x1="0.5" y1="-2.023" x2="0.5" y2="6.23" xlink:href="#linear-gradient"/>
    <linearGradient id="linear-gradient-10" x1="0.5" y1="-0.135" x2="0.5" y2="1.356" xlink:href="#linear-gradient"/>
  </defs>
  <g id="Grupo_1577" data-name="Grupo 1577" transform="translate(1390.465 -4297)">
    <g id="Grupo_1575" data-name="Grupo 1575" transform="translate(-1823.439 328)">
      <g id="Grupo_223" data-name="Grupo 223">
        <circle id="Elipse_15" data-name="Elipse 15" cx="126.5" cy="126.5" r="126.5" transform="translate(432.974 3969)" fill="#fff"/>
      </g>
    </g>
    <text id="Interventoría" transform="translate(-1338.789 4485.377)" fill="#839dcc" font-size="21" font-family="OpenSans-Bold, Open Sans" font-weight="700"><tspan x="0" y="0">Interventoría</tspan></text>
    <g id="Grupo_1576" data-name="Grupo 1576" transform="translate(-2371.439 324)">
      <path id="Trazado_656" data-name="Trazado 656" d="M1121.609,4105.163h28.438a2.5,2.5,0,0,0,2.5-2.5v-18.8a2.494,2.494,0,0,0-.729-1.762l-.005-.006-.008-.006a2.492,2.492,0,0,0-1.759-.726h-28.438a2.492,2.492,0,0,0-1.759.726l-.01.006-.006.011a2.489,2.489,0,0,0-.726,1.757v18.8A2.5,2.5,0,0,0,1121.609,4105.163Zm28.438-1.917h-28.438a.585.585,0,0,1-.584-.583v-18.024l7.017,7.016a.959.959,0,0,0,.678.281H1143a.96.96,0,0,0,.68-.283l6.953-7v18.013A.585.585,0,0,1,1150.047,4103.246Zm-27.667-19.963h26.908l-6.689,6.736h-13.482Z" fill="url(#linear-gradient)"/>
      <path id="Trazado_657" data-name="Trazado 657" d="M1128.286,4079.785a3.877,3.877,0,0,0,2.815,1.208c.079,0,.158,0,.237-.007a3.887,3.887,0,0,0,2.513-6.629l-5.759-5.759a1.957,1.957,0,0,1-.577-1.394v-9.418a.958.958,0,0,0-1.917,0v9.418a3.862,3.862,0,0,0,1.139,2.749l5.759,5.759a1.983,1.983,0,0,1,.188,2.57,1.972,1.972,0,0,1-3.009.182l-6.439-6.769a1.96,1.96,0,0,1-.542-1.358V4054.3a1.966,1.966,0,0,1,.892-1.65l8.316-5.437a.958.958,0,1,0-1.049-1.6l-8.316,5.437a3.875,3.875,0,0,0-1.76,3.253v16.035a3.865,3.865,0,0,0,1.071,2.679Z" fill="url(#linear-gradient-2)"/>
      <path id="Trazado_658" data-name="Trazado 658" d="M1139.476,4045.889a.958.958,0,0,0,.278,1.326l8.316,5.438a1.962,1.962,0,0,1,.892,1.649v16.035a1.961,1.961,0,0,1-.543,1.358l-6.438,6.769a1.982,1.982,0,0,1-1.547.608,1.957,1.957,0,0,1-1.462-.79,1.983,1.983,0,0,1,.188-2.57l5.759-5.759a3.862,3.862,0,0,0,1.139-2.749v-9.418a.958.958,0,0,0-1.917,0v9.418a1.954,1.954,0,0,1-.578,1.394l-5.759,5.759a3.888,3.888,0,0,0,2.514,6.629c.079,0,.158.007.237.007a3.881,3.881,0,0,0,2.815-1.208l6.437-6.769a3.866,3.866,0,0,0,1.072-2.679V4054.3a3.876,3.876,0,0,0-1.76-3.253l-8.316-5.437A.959.959,0,0,0,1139.476,4045.889Z" fill="url(#linear-gradient-3)"/>
      <path id="Trazado_659" data-name="Trazado 659" d="M1126.995,4105.412a.959.959,0,0,0-.9,1.012l1.3,22.374a.959.959,0,0,0,.956.9l.057,0a.96.96,0,0,0,.9-1.012l-1.3-22.375A.966.966,0,0,0,1126.995,4105.412Z" fill="url(#linear-gradient-4)"/>
      <path id="Trazado_660" data-name="Trazado 660" d="M1143.648,4106.313l-1.3,22.375a.96.96,0,0,0,.9,1.012l.057,0a.96.96,0,0,0,.956-.9l1.3-22.374a.958.958,0,0,0-.9-1.012A.972.972,0,0,0,1143.648,4106.313Z" fill="url(#linear-gradient-4)"/>
      <path id="Trazado_661" data-name="Trazado 661" d="M1134.87,4106.368v22.375a.958.958,0,1,0,1.916,0v-22.375a.958.958,0,0,0-1.916,0Z" fill="url(#linear-gradient-6)"/>
      <path id="Trazado_662" data-name="Trazado 662" d="M1135.828,4045.826a9.4,9.4,0,1,0-9.4-9.4A9.405,9.405,0,0,0,1135.828,4045.826Zm0-16.874a7.479,7.479,0,1,1-7.478,7.479A7.487,7.487,0,0,1,1135.828,4028.952Z" fill="url(#linear-gradient-7)"/>
      <path id="Trazado_663" data-name="Trazado 663" d="M1135.828,4053.336a.958.958,0,0,0,.958-.958v-4.451a.958.958,0,0,0-1.916,0v4.451A.958.958,0,0,0,1135.828,4053.336Z" fill="url(#linear-gradient-8)"/>
      <path id="Trazado_664" data-name="Trazado 664" d="M1134.87,4068.973a.958.958,0,1,0,1.916,0v-14.184a.958.958,0,1,0-1.916,0Z" fill="url(#linear-gradient-9)"/>
      <path id="Trazado_665" data-name="Trazado 665" d="M1062.729,4105.009a.937.937,0,0,0,.014.149.955.955,0,0,0,.591.62,44.521,44.521,0,0,0,54.59,11.941.959.959,0,0,0-.858-1.714,42.087,42.087,0,0,1-11.2,3.758,27.146,27.146,0,0,0,7.942-9.446.958.958,0,1,0-1.682-.918c-3.665,6.712-8.307,10.594-13.162,11.047v-18.539c4.38.022,8.689.191,12.817.516a.946.946,0,0,0,1.031-.88.959.959,0,0,0-.881-1.03c-4.177-.329-8.537-.5-12.967-.523v-21.167h13.495a.958.958,0,0,0,0-1.917h-13.495v-21.167c4.75-.02,9.258-.18,13.393-.487a.959.959,0,0,0-.142-1.912c-4.089.3-8.549.463-13.251.482v-18.535c5.338.509,10.484,5.241,14.245,13.169a.958.958,0,1,0,1.731-.821c-2.529-5.332-5.6-9.27-9.012-11.654a42.127,42.127,0,0,1,10.564,3.462.959.959,0,0,0,.831-1.728,44.524,44.524,0,0,0-54.172,12.461.941.941,0,0,0-.186.237,44.4,44.4,0,0,0-.241,54.6Zm1.424-53a72.279,72.279,0,0,0,14.191,2.81,77.457,77.457,0,0,0-3.31,22.089h-19.626A42.392,42.392,0,0,1,1064.153,4052.007Zm10.881,26.816a77.306,77.306,0,0,0,3.361,22.245,92.747,92.747,0,0,0-14.226,2.673,42.4,42.4,0,0,1-8.761-24.918Zm-9.558,26.539a94.684,94.684,0,0,1,13.539-2.441c2.7,7.673,6.613,13.629,11.194,16.842A42.632,42.632,0,0,1,1065.476,4105.362Zm15.431-2.643c5.03-.507,10.492-.786,16.145-.815v18.538C1090.41,4119.837,1084.562,4112.98,1080.907,4102.719Zm16.145-2.732c-5.876.03-11.552.33-16.77.873a76.287,76.287,0,0,1-3.332-22.037h20.1Zm-20.1-23.081a76.409,76.409,0,0,1,3.286-21.893c4.93.467,10.525.707,16.816.729v21.164Zm3.909-23.76c3.651-10.337,9.521-17.252,16.193-17.86v18.539C1091,4053.8,1085.616,4053.579,1080.859,4053.146Zm9.35-17.181c-4.612,3.234-8.543,9.246-11.249,16.992a73.459,73.459,0,0,1-13.52-2.55A42.632,42.632,0,0,1,1090.209,4035.965Z" fill="url(#linear-gradient-10)"/>
    </g>
  </g>
</svg>
