<svg xmlns="http://www.w3.org/2000/svg" xmlns:xlink="http://www.w3.org/1999/xlink" width="253" height="253" viewBox="0 0 253 253">
  <defs>
    <linearGradient id="linear-gradient" x1="0.514" y1="-0.028" x2="0.485" y2="1.125" gradientUnits="objectBoundingBox">
      <stop offset="0" stop-color="#f069db"/>
      <stop offset="0.206" stop-color="#c45ee5"/>
      <stop offset="0.465" stop-color="#9452f0"/>
      <stop offset="0.692" stop-color="#714af8"/>
      <stop offset="0.879" stop-color="#5b44fd"/>
      <stop offset="1" stop-color="#5443ff"/>
    </linearGradient>
    <linearGradient id="linear-gradient-2" x1="0.538" y1="-0.433" x2="0.364" y2="4.056" xlink:href="#linear-gradient"/>
    <linearGradient id="linear-gradient-3" x1="0.556" y1="-0.949" x2="0.364" y2="3.321" xlink:href="#linear-gradient"/>
    <linearGradient id="linear-gradient-4" x1="0.544" y1="-0.684" x2="0.418" y2="2.513" xlink:href="#linear-gradient"/>
  </defs>
  <g id="Grupo_1579" data-name="Grupo 1579" transform="translate(733.465 -4306)">
    <g id="Grupo_1570" data-name="Grupo 1570" transform="translate(-1166.439 337)">
      <g id="Grupo_223" data-name="Grupo 223">
        <circle id="Elipse_15" data-name="Elipse 15" cx="126.5" cy="126.5" r="126.5" transform="translate(432.974 3969)" fill="#fff"/>
      </g>
    </g>
    <g id="Grupo_1571" data-name="Grupo 1571" transform="translate(-1981.439 333)">
      <path id="Trazado_668" data-name="Trazado 668" d="M1432.487,4078.486a18.955,18.955,0,0,0-4.27-9.453,10.415,10.415,0,0,0,2.677-7.893c-.5-4.371-4.224-6.966-4.966-7.441a10.992,10.992,0,0,0-5.962-1.722,25.208,25.208,0,0,0-3.173-8.017,26.028,26.028,0,0,0-7.641-7.876,31.556,31.556,0,0,0-14.555-5.423,10.173,10.173,0,0,0-4.7-5.871c-3.873-2.084-8.13-.5-8.944-.164a10.794,10.794,0,0,0-3.929,2.806,29.077,29.077,0,0,0-13.65-2.986c-3.39.114-8.034.27-12.3,3.692a16.014,16.014,0,0,0-3.188,3.458,15.972,15.972,0,0,0-7.142-.222,16.166,16.166,0,0,0-8.094,4.384,18.052,18.052,0,0,0-5.138,9.722,9.432,9.432,0,0,0-4.236,1.617c-3.589,2.543-4.066,7.059-4.126,7.938a11.093,11.093,0,0,0,1.686,6.6c-1.723,2.671-6.054,10.677-2.924,19.733,2.891,8.364,10.136,11.838,12.863,13.146a27.834,27.834,0,0,0,12.055,2.686,29.117,29.117,0,0,0,3.643-.228c.083.215.148.373.183.451,3.072,7.04,10.275,9.2,12.408,9.691a17.75,17.75,0,0,0,4.014.46,21.837,21.837,0,0,0,13.143-4.875,28.79,28.79,0,0,0,8.759,1.189,10.271,10.271,0,0,0,2.465,4.855c.4.419,1.6,1.7,6.688,3.517a35.34,35.34,0,0,0,3.834,1.156,21.991,21.991,0,0,1,2.319.68,22.3,22.3,0,0,1,7.409,4.209,18.385,18.385,0,0,1,5.486,10.5,1.087,1.087,0,0,0,2.14-.383,20.526,20.526,0,0,0-6.172-11.733,24.481,24.481,0,0,0-8.134-4.643,24.085,24.085,0,0,0-2.522-.739,33.436,33.436,0,0,1-3.63-1.1c-2.964-1.057-5.035-2.108-5.833-2.959a7.933,7.933,0,0,1-1.827-3.346,92.6,92.6,0,0,0,13.93-1.1,1.087,1.087,0,0,0-.333-2.149,90.483,90.483,0,0,1-14.931,1.068c-5.69-.076-7.816-.676-9.362-1.232a21.664,21.664,0,0,1-7.205-4.386,4.011,4.011,0,0,0,.377-1.685,4.07,4.07,0,1,0-1.783,3.36,24.1,24.1,0,0,0,5.972,3.967c-2.443,1.73-7.842,4.741-14.314,3.241-1.884-.435-8.24-2.333-10.906-8.442-.253-.579-2.4-5.8-.224-10.555a9.35,9.35,0,0,1,2.032-2.786,31.785,31.785,0,0,0,2.6-3.062,33.886,33.886,0,0,0,2.716-4.3l.018-.029c0-.008,0-.016.008-.023a34.975,34.975,0,0,0,1.941-4.341,1.087,1.087,0,0,0-2.041-.748,32.553,32.553,0,0,1-1.826,4.081,7.827,7.827,0,0,1-10.345,3.11,7.659,7.659,0,0,1-2.932-2.949,8.766,8.766,0,0,1-1.137-3.157,4.04,4.04,0,1,0-2.224-.249,10.969,10.969,0,0,0,1.5,4.523,11.2,11.2,0,0,0,1.271,1.757,11.279,11.279,0,0,1-10.7-2.879,1.087,1.087,0,1,0-1.515,1.558,13.636,13.636,0,0,0,5.984,3.4,13.314,13.314,0,0,0,3.416.444,14.087,14.087,0,0,0,4.792-.852c.167.106.329.214.511.312a9.184,9.184,0,0,0,4.417,1.09,11.25,11.25,0,0,0,3.131-.458c-.425.492-.81.9-1.167,1.283a11.306,11.306,0,0,0-2.425,3.37,15.045,15.045,0,0,0-.626,9.766,26.129,26.129,0,0,1-14.107-2.305c-2.5-1.2-9.154-4.391-11.748-11.9-2.563-7.417.6-14.263,2.258-17.12a13.788,13.788,0,0,0,2.362,2.182,1.087,1.087,0,1,0,1.226-1.795,11.925,11.925,0,0,1-2.593-2.6,1.074,1.074,0,0,0-.414-.626c-.005,0-.012,0-.017-.008a9.05,9.05,0,0,1-1.47-5.509c.029-.434.367-4.294,3.214-6.311,3.14-2.224,9.042-1.751,13.482,2.887a1.087,1.087,0,0,0,1.571-1.5,15.292,15.292,0,0,0-9.837-4.847,15.735,15.735,0,0,1,4.408-8.083,14.065,14.065,0,0,1,7.017-3.82,13.694,13.694,0,0,1,5.531.065,18.775,18.775,0,0,0-1.17,2.861,1.087,1.087,0,0,0,.711,1.363,1.1,1.1,0,0,0,.327.05,1.087,1.087,0,0,0,1.036-.761,15.034,15.034,0,0,1,4.825-7.25c3.7-2.968,7.928-3.111,11.014-3.215a27.176,27.176,0,0,1,12.253,2.59,14.359,14.359,0,0,0-1.9,5.044,1.086,1.086,0,1,0,2.153.293c.008-.057.851-5.842,5.831-7.911.4-.166,4.013-1.579,7.082.07,3.39,1.824,5.593,7.319,3.412,13.36a1.087,1.087,0,0,0,2.045.738,16.111,16.111,0,0,0,.818-7.9,29.352,29.352,0,0,1,12.762,4.955,24.032,24.032,0,0,1,7.04,7.237,23.034,23.034,0,0,1,2.837,7.046,14.073,14.073,0,0,0-3.836,1.168,1.087,1.087,0,0,0,.986,1.937c.053-.027,5.287-2.632,9.826.279.365.234,3.585,2.391,3.98,5.857.435,3.823-2.823,8.767-9.029,10.422a1.087,1.087,0,1,0,.56,2.1,16.3,16.3,0,0,0,6.408-3.328,16.753,16.753,0,0,1,3.661,8.212,12.3,12.3,0,0,1-.769,7.367,12.832,12.832,0,0,1-6.576,6.486c-.762.332-7.618,3.152-13.8.333a13.616,13.616,0,0,1-5.054-4.061,4.039,4.039,0,1,0-2.588.957,3.939,3.939,0,0,0,.556-.056,15.865,15.865,0,0,0,6.183,5.136,16.571,16.571,0,0,0,6.921,1.429,23.184,23.184,0,0,0,6.613-1.018,14.528,14.528,0,0,1-1.58,3.3,15.77,15.77,0,0,1-5.379,4.956,20.925,20.925,0,0,1-9.439,2.972,1.087,1.087,0,0,0,.076,2.171c.026,0,.052,0,.078,0a23.589,23.589,0,0,0,6.945-1.565,18.209,18.209,0,0,1,3.835,3.159,20.086,20.086,0,0,1,3.894,6.58,28.081,28.081,0,0,1,1.974,8.937,1.086,1.086,0,0,0,1.084,1.027l.062,0a1.087,1.087,0,0,0,1.024-1.146,30.282,30.282,0,0,0-2.127-9.629,22.318,22.318,0,0,0-4.309-7.236,20.323,20.323,0,0,0-3.117-2.752c.393-.209.779-.428,1.156-.66a17.95,17.95,0,0,0,6.064-5.623,16.861,16.861,0,0,0,2.288-5.446,15.1,15.1,0,0,0,7.173-7.308A14.418,14.418,0,0,0,1432.487,4078.486Zm-66.873,17.831a1.888,1.888,0,1,1,1.888-1.889A1.891,1.891,0,0,1,1365.614,4096.317ZM1338.8,4065.91a1.888,1.888,0,1,1,0,3.776c-.029,0-.056-.007-.084-.009a.989.989,0,0,0-.484-.113.409.409,0,0,0-.047.011,1.883,1.883,0,0,1,.615-3.665Zm60.867,19.9a1.888,1.888,0,1,1,1.888,1.889A1.89,1.89,0,0,1,1399.665,4085.812Z" fill="url(#linear-gradient)"/>
      <path id="Trazado_669" data-name="Trazado 669" d="M1347.249,4057.235a1.087,1.087,0,1,0,1.231,1.791,12.642,12.642,0,0,0,3.541-3.66,11.054,11.054,0,0,0,1.837-4.839,9.322,9.322,0,0,0,1.5.127,8.794,8.794,0,0,0,3.146-.576,9.226,9.226,0,0,0,4.891-4.5,10.217,10.217,0,0,0,1.043-6.352,4.038,4.038,0,1,0-2.5.885,4.117,4.117,0,0,0,.416-.042,7.973,7.973,0,0,1-.878,4.488,7.162,7.162,0,0,1-3.745,3.489,6.825,6.825,0,0,1-3.888.268,9.7,9.7,0,0,0-4.788-7.209,1.087,1.087,0,1,0-1.089,1.881,7.54,7.54,0,0,1,3.776,6.228,8.377,8.377,0,0,1-1.559,4.987A10.482,10.482,0,0,1,1347.249,4057.235Zm12.8-21.186a1.888,1.888,0,1,1,1.888,1.889A1.89,1.89,0,0,1,1360.052,4036.049Z" fill="url(#linear-gradient-2)"/>
      <path id="Trazado_670" data-name="Trazado 670" d="M1398.709,4048.754a1.081,1.081,0,0,0-1.284.845,13.192,13.192,0,0,0,.118,5.883,11.214,11.214,0,0,0,4.078,6.544c.082.061.165.106.248.163a14.976,14.976,0,0,0,1.994,8.579,4.018,4.018,0,0,0-.9,2.522,4.062,4.062,0,1,0,4.062-4.061,4.021,4.021,0,0,0-1.391.261,12.834,12.834,0,0,1-1.622-6.18,14.09,14.09,0,0,0,3.656.758q.734.073,1.466.073a14.841,14.841,0,0,0,4.706-.771,1.087,1.087,0,1,0-.687-2.062,12.644,12.644,0,0,1-5.271.6,9.309,9.309,0,0,1-4.965-1.627,9.183,9.183,0,0,1-3.263-5.33,11.031,11.031,0,0,1-.1-4.91A1.086,1.086,0,0,0,1398.709,4048.754Zm10.2,24.536a1.888,1.888,0,1,1-1.888-1.887A1.891,1.891,0,0,1,1408.909,4073.29Z" fill="url(#linear-gradient-3)"/>
      <path id="Trazado_671" data-name="Trazado 671" d="M1387.021,4059.95a1.087,1.087,0,1,0,0-2.174h-8.172l-3.029-10.137a1.087,1.087,0,0,0-2.083,0l-3.03,10.137h-8.172a1.087,1.087,0,1,0,0,2.174h7.522l-1.9,6.348h-5.625a1.087,1.087,0,1,0,0,2.174h4.975l-4.553,15.231a1.087,1.087,0,0,0,1.811,1.08l10.01-10.036,10.01,10.036a1.087,1.087,0,0,0,1.811-1.08l-4.553-15.231h4.975a1.087,1.087,0,1,0,0-2.174H1381.4l-1.9-6.348Zm-12.243-8.2,1.8,6.031h-3.6Zm-8.5,28.449,3.213-10.75,3.755,3.764Zm10.038-6.986,3.755-3.763,3.213,10.749Zm-1.535-1.539-3.189-3.2h6.379Zm4.349-5.371h-8.7l1.9-6.348h4.9Z" fill="url(#linear-gradient-4)"/>
    </g>
    <text id="Estrategia" transform="translate(-659.673 4499.377)" fill="#839dcc" font-size="21" font-family="OpenSans-Bold, Open Sans" font-weight="700"><tspan x="0" y="0">Estrategia</tspan></text>
  </g>
</svg>
