<svg xmlns="http://www.w3.org/2000/svg" xmlns:xlink="http://www.w3.org/1999/xlink" width="110.525" height="111.516" viewBox="0 0 110.525 111.516">
  <defs>
    <linearGradient id="linear-gradient" x1="0.5" y1="-1.611" x2="0.5" y2="1.625" gradientUnits="objectBoundingBox">
      <stop offset="0" stop-color="#f069db"/>
      <stop offset="0.206" stop-color="#c45ee5"/>
      <stop offset="0.465" stop-color="#9452f0"/>
      <stop offset="0.692" stop-color="#714af8"/>
      <stop offset="0.879" stop-color="#5b44fd"/>
      <stop offset="1" stop-color="#5443ff"/>
    </linearGradient>
    <linearGradient id="linear-gradient-2" x1="0.5" y1="-0.398" x2="0.5" y2="2.378" xlink:href="#linear-gradient"/>
    <linearGradient id="linear-gradient-3" x1="0.5" y1="-0.121" x2="0.5" y2="2.062" xlink:href="#linear-gradient"/>
  </defs>
  <g id="Grupo_353" data-name="Grupo 353" transform="translate(-1439.179 -1195.001)">
    <path id="Trazado_274" data-name="Trazado 274" d="M1537.13,1281.247a4.961,4.961,0,0,0-2.393-2.385c-5.141-2.39-25.784-14.13-29.869-16.459a4.974,4.974,0,0,0-2.453-.647h-19.356a7.142,7.142,0,0,0,0,14.284h13.787a2.292,2.292,0,0,1,0,4.583h-24.083a2.3,2.3,0,0,1-1.468-.532l-21.519-17.932a6.461,6.461,0,0,0-8.3,9.906l22.63,19.057a4.987,4.987,0,0,0,2.1,1.044l30.671,6.971a4.972,4.972,0,0,0,1.1.123h18.905a2.28,2.28,0,0,1,2.128,1.441l1.99,4.975a1.337,1.337,0,0,0,2.483-.993l-1.99-4.975a4.941,4.941,0,0,0-4.611-3.122h-18.905a2.3,2.3,0,0,1-.509-.057l-30.672-6.971a2.289,2.289,0,0,1-.967-.481l-22.631-19.058a3.787,3.787,0,0,1,4.865-5.806l21.519,17.933a4.978,4.978,0,0,0,3.179,1.151h24.083a4.966,4.966,0,0,0,0-9.931h-13.787a4.468,4.468,0,1,1,0-8.936h19.356a2.25,2.25,0,0,1,1.128.3c4.1,2.338,24.83,14.125,30.066,16.56a2.245,2.245,0,0,1,1.1,1.1l10.995,23.364a1.337,1.337,0,0,0,2.42-1.138Z" fill="url(#linear-gradient)"/>
    <path id="Trazado_275" data-name="Trazado 275" d="M1487.169,1261.5a1.411,1.411,0,0,0,.244.024,1.385,1.385,0,0,0,.146-.014c.193,0,.385.014.579.014a26.765,26.765,0,0,0,26.735-26.734c0-.195-.011-.387-.015-.58a1.387,1.387,0,0,0,.015-.146,1.3,1.3,0,0,0-.025-.244,26.566,26.566,0,0,0-4.47-13.847,1.332,1.332,0,0,0-1.237-1.695,26.686,26.686,0,0,0-41.974-.04,1.329,1.329,0,0,0-1.344,1.853,26.561,26.561,0,0,0-4.394,13.729,1.31,1.31,0,0,0-.025.244,1.19,1.19,0,0,0,.015.146c0,.193-.015.385-.015.58A26.763,26.763,0,0,0,1487.169,1261.5Zm-18.986-40.139a46.519,46.519,0,0,0,6.388,1.435,44.107,44.107,0,0,0-1.51,9.931h-8.889A23.924,23.924,0,0,1,1468.183,1221.364Zm43.921,11.366h-8.889a44.014,44.014,0,0,0-1.51-9.933,46.5,46.5,0,0,0,6.388-1.433A23.9,23.9,0,0,1,1512.1,1232.73Zm-3.253,14.285a43.373,43.373,0,0,0-6.785-1.618,45.689,45.689,0,0,0,1.188-9.993h8.929A23.891,23.891,0,0,1,1508.851,1247.015Zm-22.775-2.651a89.741,89.741,0,0,0-9.165.643,42.175,42.175,0,0,1-1.215-9.6h10.38Zm0,2.674V1258.5c-3.488-1.18-6.532-5.279-8.407-10.9C1480.287,1247.292,1483.129,1247.1,1486.076,1247.038Zm2.674,11.784v-11.8a89.573,89.573,0,0,1,9.857.585C1496.475,1253.99,1492.837,1258.418,1488.75,1258.822Zm0-14.477V1235.4h11.83a42.186,42.186,0,0,1-1.215,9.6A91.342,91.342,0,0,0,1488.75,1244.345Zm11.787-11.615H1488.75v-8.941a91.832,91.832,0,0,0,10.232-.614A40.82,40.82,0,0,1,1500.537,1232.73Zm-11.787-11.615v-10.352c3.783.375,7.183,4.194,9.359,9.824A89.941,89.941,0,0,1,1488.75,1221.115Zm-2.674-10.03V1221.1c-2.762-.058-5.429-.232-7.909-.508C1480.061,1215.688,1482.883,1212.165,1486.076,1211.085Zm0,12.685v8.96h-10.337a40.871,40.871,0,0,1,1.555-9.554C1480.039,1223.5,1483.008,1223.707,1486.076,1223.77Zm-13.053,11.634a45.689,45.689,0,0,0,1.187,9.992,43.334,43.334,0,0,0-6.785,1.618,23.912,23.912,0,0,1-3.332-11.61Zm-4.046,13.918a43.411,43.411,0,0,1,5.948-1.339,25.646,25.646,0,0,0,5.065,9.447A24.16,24.16,0,0,1,1468.977,1249.322Zm27.309,8.108a25.641,25.641,0,0,0,5.065-9.446,43.455,43.455,0,0,1,5.949,1.338A24.163,24.163,0,0,1,1496.286,1257.43Zm10.06-38.338a47.99,47.99,0,0,1-5.461,1.132,24.525,24.525,0,0,0-4.6-8.069A24.137,24.137,0,0,1,1506.346,1219.092Zm-26.356-6.937a24.532,24.532,0,0,0-4.6,8.069,47.8,47.8,0,0,1-5.462-1.132A24.137,24.137,0,0,1,1479.99,1212.155Z" fill="url(#linear-gradient-2)"/>
    <path id="Trazado_276" data-name="Trazado 276" d="M1544.013,1228.376a5.7,5.7,0,0,0-5.526,4.354h-14.906v-4.945h8.822a1.339,1.339,0,0,0,.915-.362l5.418-5.081h9.631a1.337,1.337,0,1,0,0-2.674h-10.159a1.34,1.34,0,0,0-.915.362l-5.419,5.081h-8.293V1215.2a1.337,1.337,0,0,0-.679-1.163l-33.38-18.867c-.01-.006-.021-.008-.031-.014-.043-.022-.087-.04-.132-.058s-.075-.032-.113-.043-.084-.019-.126-.028-.086-.018-.129-.023-.085,0-.127,0-.086,0-.128,0-.084.015-.127.023a1.125,1.125,0,0,0-.128.028c-.036.011-.071.027-.106.041a1.523,1.523,0,0,0-.142.062c-.009.005-.018.007-.027.012l-33.379,18.867a1.335,1.335,0,0,0-.679,1.163v39.185a1.338,1.338,0,0,0,.739,1.2l14.512,7.256a1.337,1.337,0,0,0,1.2-2.392l-13.773-6.887V1215.98l32.042-18.111,32.043,18.111v37.578l-13.775,6.887a1.337,1.337,0,1,0,1.2,2.392l14.514-7.256a1.34,1.34,0,0,0,.739-1.2v-13.176h8.268l4.41,4.41a5.715,5.715,0,1,0,1.891-1.89l-4.8-4.8a1.337,1.337,0,0,0-.945-.392h-8.822V1235.4h14.906a5.688,5.688,0,1,0,5.526-7.028Zm.114,20.2a3.016,3.016,0,1,1-5.543-1.639,1.3,1.3,0,0,0,.569-.318,1.318,1.318,0,0,0,.319-.57,3.009,3.009,0,0,1,4.655,2.527Zm-.114-11.5a3.017,3.017,0,1,1,3.017-3.017A3.021,3.021,0,0,1,1544.013,1237.084Z" fill="url(#linear-gradient-3)"/>
  </g>
</svg>
