<svg xmlns="http://www.w3.org/2000/svg" xmlns:xlink="http://www.w3.org/1999/xlink" width="89.75" height="110.069" viewBox="0 0 89.75 110.069">
  <defs>
    <linearGradient id="linear-gradient" x1="0.5" y1="-0.081" x2="0.5" y2="1.267" gradientUnits="objectBoundingBox">
      <stop offset="0" stop-color="#f069db"/>
      <stop offset="0.206" stop-color="#c45ee5"/>
      <stop offset="0.465" stop-color="#9452f0"/>
      <stop offset="0.692" stop-color="#714af8"/>
      <stop offset="0.879" stop-color="#5b44fd"/>
      <stop offset="1" stop-color="#5443ff"/>
    </linearGradient>
    <linearGradient id="linear-gradient-2" x1="0.5" y1="-0.686" x2="0.5" y2="2.214" xlink:href="#linear-gradient"/>
    <linearGradient id="linear-gradient-3" x1="0.5" y1="-0.871" x2="0.5" y2="5.201" xlink:href="#linear-gradient"/>
    <linearGradient id="linear-gradient-4" x1="0.5" y1="-3.703" x2="0.5" y2="2.752" xlink:href="#linear-gradient"/>
  </defs>
  <g id="Grupo_350" data-name="Grupo 350" transform="translate(-404.462 -1195.725)">
    <path id="Trazado_244" data-name="Trazado 244" d="M493.473,1195.866a1.338,1.338,0,0,0-1.4.127c-.223.168-22.623,16.624-41.909,1.469a1.339,1.339,0,0,0-1.652,0c-8.051,6.325-17.511,8.023-28.119,5.048a46.539,46.539,0,0,1-13.792-6.518,1.338,1.338,0,0,0-2.139,1.07v56.6c0,10.632,7.477,22.627,22.221,35.652A169.1,169.1,0,0,0,448.65,1305.6a1.333,1.333,0,0,0,1.375,0,169.059,169.059,0,0,0,21.966-16.289c14.745-13.025,22.221-25.02,22.221-35.652v-56.6A1.338,1.338,0,0,0,493.473,1195.866Zm-1.935,57.8c0,21.965-36.683,45.769-42.2,49.223-5.517-3.454-42.2-27.258-42.2-49.223v-54.124c6.26,3.821,25.16,13.274,42.2.658,17.044,12.618,35.943,3.162,42.2-.658Z" fill="url(#linear-gradient)"/>
    <path id="Trazado_245" data-name="Trazado 245" d="M474.991,1222.276a1.339,1.339,0,0,0-1.891,0l-33.2,33.2-8.525-8.524a1.376,1.376,0,0,0-1.89,0l-7.183,7.184a1.336,1.336,0,0,0,0,1.891l16.652,16.653a1.339,1.339,0,0,0,1.891,0l41.325-41.325a1.337,1.337,0,0,0,0-1.891ZM439.9,1269.84l-14.762-14.763,5.292-5.292,8.524,8.524a1.377,1.377,0,0,0,1.891,0l33.2-33.2,5.292,5.293Z" fill="url(#linear-gradient-2)"/>
    <path id="Trazado_246" data-name="Trazado 246" d="M449.353,1208.286h0a1.292,1.292,0,0,0-.292-.142c-.028-.01-.056-.017-.084-.025a1.245,1.245,0,0,0-.25-.046c-.024,0-.048-.007-.071-.008a1.316,1.316,0,0,0-.319.028c-.02,0-.038.011-.057.016a1.289,1.289,0,0,0-.249.093.4.4,0,0,0-.049.018c-.015.008-.026.021-.041.029s-.048.023-.07.038c-16.475,10.982-34.66.084-34.841-.027a1.337,1.337,0,0,0-1.4,2.278,42.311,42.311,0,0,0,19.914,5.317,31.617,31.617,0,0,0,15.732-4.07v19.383a1.337,1.337,0,1,0,2.674,0v-19.379c17.324,9.777,35.457-1.136,35.646-1.251a1.337,1.337,0,1,0-1.4-2.278C484.012,1208.37,465.865,1219.293,449.353,1208.286Z" fill="url(#linear-gradient-3)"/>
    <path id="Trazado_247" data-name="Trazado 247" d="M474.086,1272.185a1.339,1.339,0,0,0-1.873.267c-.121.162-11.668,15.424-22.264,19.309v-15.6a1.337,1.337,0,1,0-2.674,0v15.595c-10.6-3.885-22.144-19.138-22.266-19.3a1.337,1.337,0,0,0-2.139,1.6c.545.727,13.484,17.829,25.417,20.812a1.314,1.314,0,0,0,.326.041l.012,0a1.323,1.323,0,0,0,.311-.039c11.933-2.983,24.872-20.085,25.417-20.812A1.338,1.338,0,0,0,474.086,1272.185Z" fill="url(#linear-gradient-4)"/>
  </g>
</svg>
