<svg xmlns="http://www.w3.org/2000/svg" xmlns:xlink="http://www.w3.org/1999/xlink" width="115.873" height="110.069" viewBox="0 0 115.873 110.069">
  <defs>
    <linearGradient id="linear-gradient" x1="0.5" y1="-0.081" x2="0.5" y2="1.267" gradientUnits="objectBoundingBox">
      <stop offset="0" stop-color="#f069db"/>
      <stop offset="0.206" stop-color="#c45ee5"/>
      <stop offset="0.465" stop-color="#9452f0"/>
      <stop offset="0.692" stop-color="#714af8"/>
      <stop offset="0.879" stop-color="#5b44fd"/>
      <stop offset="1" stop-color="#5443ff"/>
    </linearGradient>
    <linearGradient id="linear-gradient-2" x1="0.5" y1="-8.774" x2="0.5" y2="46.727" xlink:href="#linear-gradient"/>
    <linearGradient id="linear-gradient-3" x1="0.5" y1="-12.573" x2="0.5" y2="42.926" xlink:href="#linear-gradient"/>
    <linearGradient id="linear-gradient-4" x1="0.5" y1="-17.458" x2="0.5" y2="38.044" xlink:href="#linear-gradient"/>
    <linearGradient id="linear-gradient-5" x1="0.5" y1="-9.206" x2="0.5" y2="26.772" xlink:href="#linear-gradient"/>
    <linearGradient id="linear-gradient-8" x1="0.5" y1="-2.535" x2="0.5" y2="3.919" xlink:href="#linear-gradient"/>
    <linearGradient id="linear-gradient-9" x1="0.5" y1="-3.148" x2="0.5" y2="2.583" xlink:href="#linear-gradient"/>
    <linearGradient id="linear-gradient-10" x1="0.5" y1="-15.139" x2="0.5" y2="11.477" xlink:href="#linear-gradient"/>
  </defs>
  <g id="Grupo_352" data-name="Grupo 352" transform="translate(-1087.988 -1195.725)">
    <path id="Trazado_264" data-name="Trazado 264" d="M1203.861,1222.749v-13.64a13.4,13.4,0,0,0-13.383-13.384h-29.6a13.4,13.4,0,0,0-13.383,13.384v5.962a1.324,1.324,0,0,0-1.3-.451c-2.2.133-30.453.057-49.189-.028a9.027,9.027,0,0,0-9.017,9.017v73.167a9.027,9.027,0,0,0,9.017,9.018h96.388a9.027,9.027,0,0,0,9.017-9.018h-.014c.049-.536.056-1.324.067-2.505.014-1.6.027-3.887.036-6.632.019-5.484.029-12.8.029-20.139,0-19.5-.05-29.622-.146-30.079a1.337,1.337,0,0,0-2.635.444c.143,2.218.149,55.809.007,58.694a1.289,1.289,0,0,0-.018.217,6.35,6.35,0,0,1-6.343,6.344h-96.388a6.351,6.351,0,0,1-6.343-6.344v-73.167a6.349,6.349,0,0,1,6.337-6.343s12.353.056,24.713.084c6.181.014,12.364.022,17.007.011,6.713-.014,8.277-.018,8.772-.5v5.885A13.408,13.408,0,0,0,1159.1,1236v6.051a1.337,1.337,0,0,0,2.105,1.094l9.994-7.014h19.278A13.4,13.4,0,0,0,1203.861,1222.749Zm-43.423,10.709c-.033,0-.063.007-.095.01a1.3,1.3,0,0,0-.2-.034,10.732,10.732,0,0,1-9.978-10.685v-13.64a10.722,10.722,0,0,1,10.709-10.71h29.6a10.722,10.722,0,0,1,10.709,10.71v13.64a10.721,10.721,0,0,1-10.709,10.709h-20.426a1.333,1.333,0,0,0-1.317,1.137l-6.96,4.885V1234.8A1.338,1.338,0,0,0,1160.438,1233.458Z" fill="url(#linear-gradient)"/>
    <path id="Trazado_265" data-name="Trazado 265" d="M1161.889,1212.912h27.574a1.337,1.337,0,1,0,0-2.674h-27.574a1.337,1.337,0,1,0,0,2.674Z" fill="url(#linear-gradient-2)"/>
    <path id="Trazado_266" data-name="Trazado 266" d="M1179.3,1223.071a1.337,1.337,0,1,0,0-2.674h-17.415a1.337,1.337,0,1,0,0,2.674Z" fill="url(#linear-gradient-3)"/>
    <path id="Trazado_267" data-name="Trazado 267" d="M1096.695,1234.8a1.337,1.337,0,0,0,1.337,1.337h47.893a1.337,1.337,0,0,0,0-2.674h-47.893A1.338,1.338,0,0,0,1096.695,1234.8Z" fill="url(#linear-gradient-4)"/>
    <path id="Trazado_268" data-name="Trazado 268" d="M1103.723,1226.813a2.063,2.063,0,1,0-2.063,2.063A2.065,2.065,0,0,0,1103.723,1226.813Zm-2.674,0a.612.612,0,1,1,.611.612A.612.612,0,0,1,1101.049,1226.813Z" fill="url(#linear-gradient-5)"/>
    <path id="Trazado_269" data-name="Trazado 269" d="M1112.431,1226.813a2.063,2.063,0,1,0-2.063,2.063A2.065,2.065,0,0,0,1112.431,1226.813Zm-2.674,0a.611.611,0,1,1,.611.612A.612.612,0,0,1,1109.757,1226.813Z" fill="url(#linear-gradient-5)"/>
    <path id="Trazado_270" data-name="Trazado 270" d="M1121.138,1226.813a2.063,2.063,0,1,0-2.062,2.063A2.064,2.064,0,0,0,1121.138,1226.813Zm-2.674,0a.612.612,0,1,1,.612.612A.612.612,0,0,1,1118.464,1226.813Z" fill="url(#linear-gradient-5)"/>
    <path id="Trazado_271" data-name="Trazado 271" d="M1157.421,1256.564a11.5,11.5,0,1,0-11.5,11.5A11.509,11.509,0,0,0,1157.421,1256.564Zm-11.5,8.823a8.822,8.822,0,1,1,8.822-8.823A8.833,8.833,0,0,1,1145.925,1265.387Z" fill="url(#linear-gradient-8)"/>
    <path id="Trazado_272" data-name="Trazado 272" d="M1109.642,1294.183h72.565a1.337,1.337,0,0,0,0-2.674h-6.228a4.2,4.2,0,0,0,.308-1.565v-3.152a4.207,4.207,0,0,0-1.241-3l-11.681-11.681a4.255,4.255,0,0,0-1.832-1.078l-9.436-2.7a1.337,1.337,0,0,0-.735,2.572l9.435,2.7a1.579,1.579,0,0,1,.678.4l11.68,11.68a1.555,1.555,0,0,1,.458,1.106v3.152a1.567,1.567,0,0,1-1.565,1.565h-14.762a1.565,1.565,0,0,1-1.107-2.672,1.559,1.559,0,0,1,1.107-.459h10.408a1.337,1.337,0,1,0,0-2.674h-1l-6.674-8.213a1.337,1.337,0,1,0-2.075,1.686l5.3,6.527h-5.966a4.214,4.214,0,0,0-3,1.242,4.171,4.171,0,0,0-.938,4.563h-6.088v-13.175a1.337,1.337,0,1,0-2.674,0v13.175H1138.5a4.237,4.237,0,0,0-3.936-5.805H1128.6l5.3-6.527a1.337,1.337,0,1,0-2.075-1.686l-6.674,8.213h-1a1.337,1.337,0,0,0,0,2.674h10.409a1.561,1.561,0,0,1,1.107.459,1.566,1.566,0,0,1-1.107,2.672H1119.8a1.567,1.567,0,0,1-1.565-1.565v-3.152a1.555,1.555,0,0,1,.458-1.106l11.679-11.679a1.571,1.571,0,0,1,.678-.4l9.436-2.7a1.338,1.338,0,0,0-.735-2.572l-9.436,2.7a4.251,4.251,0,0,0-1.833,1.078L1116.8,1283.8a4.209,4.209,0,0,0-1.242,3v3.152a4.2,4.2,0,0,0,.308,1.565h-6.228a1.337,1.337,0,0,0,0,2.674Z" fill="url(#linear-gradient-9)"/>
    <path id="Trazado_273" data-name="Trazado 273" d="M1144.588,1272.529v2.9a1.337,1.337,0,0,0,2.674,0v-2.9a1.337,1.337,0,1,0-2.674,0Z" fill="url(#linear-gradient-10)"/>
  </g>
</svg>
